Season of the Witch 2011 TS XViD Hive-CM8



Thx Hive

CM8 Doing It Right The First Time


Sources:
Russian Video:
Vremja.vedm.2010.D.TS.ELEKTRI4KA
Toxic-Ink´s Audio: Thx
Season.of.the.Witch.2011.TS.XViD-T0XiC-iNK
thx Ink for syncing
all creds go to Ink for syncing, i just tried to make the russian video better.

Encode:
added bit brightness,contrast,sharpness,rgb colours,denoise and chroma.
despite the fact that the video is missing some lines above so that the heads are cutted off a bit its a watchable version.

 
http://www.imdb.com/title/tt0479997/


General
Complete name : Season.of.the.Witch.2011.TS.XViD.Hive-CM8.avi
Format : AVI
Format/Info : Audio Video Interleave
File size : 1.10 GiB
Duration : 1h 24mn
Overall bit rate : 1 866 Kbps
Writing application : Nandub v1.0rc2
Writing library : Nandub build 1853/release

Video
ID : 0
Format : MPEG-4 Visual
Format profile : Advanced Simple@L5
Format settings, BVOP : Yes
Format settings, QPel : Yes
Format settings, GMC : No warppoints
Format settings, Matrix : Default (H.263)
Muxing mode : Packed bitstream
Codec ID : XVID
Codec ID/Hint : XviD
Duration : 1h 24mn
Bit rate : 1 600 Kbps
Width : 720 pixels
Height : 320 pixels
Display aspect ratio : 2.25:1
Frame rate : 25.000 fps
Color space : YUV
Chroma subsampling : 4:2:0
Bit depth : 8 bits
Scan type : Progressive
Bits/(Pixel*Frame) : 0.278
Stream size : 968 MiB (86%)
Writing library : XviD 1.2.1 (UTC 2008-12-04)

Audio
ID : 1
Format : AC-3
Format/Info : Audio Coding 3
Mode extension : CM (complete main)
Codec ID : 2000
Duration : 1h 24mn
Bit rate mode : Constant
Bit rate : 256 Kbps
Channel(s) : 2 channels
Channel positions : Front: L R
Sampling rate : 48.0 KHz
Bit depth : 16 bits
Stream size : 155 MiB (14%)
Alignment : Split accross interleaves
Interleave, duration : 40 ms (1.00 video frame)
Interleave, preload duration : 500 ms



Nicolas Cage ... Behmen
Ron Perlman ... Felson
Stephen Campbell Moore ... Debelzaq
Stephen Graham ... Hagamar
Ulrich Thomsen ... Eckhart
Claire Foy ... The Girl
Robert Sheehan ... Kay
Christopher Lee ... Cardinal D'Ambroise
Rebekah Kennedy ... Peasant Turk Girl




14th-century knights transport a suspected witch to a monastery, where monks
deduce her powers could be the source of the Black Plague. 